<svg height="512pt" viewBox="0 0 512 512.001" width="512pt" xmlns="http://www.w3.org/2000/svg"><path d="m369.007812 512c-4.515624 0-8.9375-2.039062-11.859374-5.808594l-242-312c-3.507813-4.523437-4.136719-10.648437-1.617188-15.789062 2.519531-5.144532 7.742188-8.402344 13.46875-8.402344h73.773438l-86.703126-147.394531c-2.726562-4.636719-2.761718-10.382813-.089843-15.054688 2.671875-4.667969 7.640625-7.550781 13.019531-7.550781h80c5.242188 0 10.101562 2.734375 12.824219 7.214844l170 280c2.808593 4.628906 2.90625 10.417968.25 15.140625-2.660157 4.722656-7.65625 7.644531-13.074219 7.644531h-49.707031l56.046875 182.597656c2.125 6.925782-1 14.378906-7.429688 17.714844-2.195312 1.140625-4.5625 1.6875-6.902344 1.6875zm0 0" fill="#ffda44"/><path d="m467.007812 270c-4.519531 0-8.945312-2.042969-11.871093-5.816406l-120-155c-3.5-4.527344-4.125-10.652344-1.605469-15.789063s7.746094-8.394531 13.46875-8.394531h23.773438l-36.703126-62.394531c-2.726562-4.636719-2.761718-10.382813-.089843-15.054688 2.671875-4.667969 7.640625-7.550781 13.019531-7.550781h65c5.242188 0 10.101562 2.734375 12.824219 7.214844l85 140c2.808593 4.632812 2.90625 10.417968.25 15.140625-2.660157 4.722656-7.65625 7.644531-13.074219 7.644531h-39.839844l24.207032 80.691406c2.078124 6.921875-1.078126 14.339844-7.503907 17.644532-2.183593 1.125-4.53125 1.664062-6.855469 1.664062zm0 0" fill="#ffae39"/><path d="m135.007812 512c-4.519531 0-8.945312-2.042969-11.867187-5.816406l-120-155c-3.503906-4.527344-4.128906-10.652344-1.605469-15.789063 2.519532-5.136719 7.742188-8.394531 13.464844-8.394531h23.773438l-36.703126-62.394531c-2.726562-4.640625-2.761718-10.382813-.089843-15.054688 2.671875-4.667969 7.640625-7.550781 13.019531-7.550781h65c5.242188 0 10.101562 2.734375 12.824219 7.214844l85 140c2.8125 4.628906 2.90625 10.417968.25 15.140625-2.660157 4.722656-7.65625 7.644531-13.074219 7.644531h-39.839844l24.207032 80.6875c2.078124 6.925781-1.078126 14.34375-7.503907 17.648438-2.183593 1.125-4.53125 1.664062-6.855469 1.664062zm0 0" fill="#ffae39"/><path d="m389.820312 287.214844-137.820312-227v310.417968l105.148438 135.558594c2.921874 3.769532 7.34375 5.808594 11.859374 5.808594 2.339844 0 4.707032-.546875 6.902344-1.6875 6.429688-3.335938 9.554688-10.789062 7.429688-17.714844l-56.046875-182.597656h49.707031c5.417969 0 10.414062-2.921875 13.074219-7.644531 2.65625-4.722657 2.558593-10.507813-.253907-15.140625zm0 0" fill="#eebf00"/><g fill="#ff9500"><path d="m509.820312 147.214844-85-140c-.777343-1.28125-1.734374-2.414063-2.820312-3.386719v217.550781l33.136719 42.804688c2.921875 3.773437 7.351562 5.816406 11.871093 5.816406 2.324219 0 4.671876-.539062 6.855469-1.664062 6.425781-3.304688 9.582031-10.722657 7.503907-17.644532l-24.207032-80.691406h39.839844c5.417969 0 10.414062-2.921875 13.070312-7.644531 2.660157-4.722657 2.5625-10.507813-.25-15.140625zm0 0"/><path d="m177.820312 389.214844-85-140c-.777343-1.28125-1.734374-2.414063-2.820312-3.386719v217.550781l33.140625 42.804688c2.921875 3.773437 7.347656 5.816406 11.867187 5.816406 2.324219 0 4.671876-.539062 6.855469-1.664062 6.425781-3.304688 9.582031-10.726563 7.503907-17.648438l-24.207032-80.6875h39.839844c5.417969 0 10.414062-2.921875 13.070312-7.644531 2.660157-4.722657 2.5625-10.507813-.25-15.140625zm0 0"/></g></svg>