<?xml version="1.0" encoding="iso-8859-1"?>
<!-- Generator: Adobe Illustrator 19.0.0, SVG Export Plug-In . SVG Version: 6.00 Build 0)  -->
<svg version="1.1" id="Capa_1" xmlns="http://www.w3.org/2000/svg" xmlns:xlink="http://www.w3.org/1999/xlink" x="0px" y="0px"
	 viewBox="0 0 512 512" style="enable-background:new 0 0 512 512;" xml:space="preserve">
<path style="fill:#E6EAEE;" d="M7.117,258.572c116.904,196.641,380.861,196.641,497.766,0c0.94-1.58,0.94-3.564,0-5.144
	c-116.905-196.641-380.861-196.641-497.766,0C6.177,255.008,6.177,256.992,7.117,258.572z"/>
<path style="fill:#CDD3D9;" d="M504.886,258.568c-63.522,106.848-170.451,155.64-273.624,146.367
	c86.711-7.773,170.763-56.565,224.148-146.367c0.946-1.571,0.946-3.564,0-5.135c-53.384-89.802-137.437-138.594-224.148-146.367
	c103.173-9.273,210.102,39.519,273.624,146.367C505.822,255.003,505.822,256.997,504.886,258.568z"/>
<circle style="fill:#63CFF1;" cx="256.002" cy="256.002" r="147.061"/>
<path style="fill:#33BDDD;" d="M403.062,256c0,81.224-65.839,147.062-147.062,147.062c-8.216,0-16.281-0.675-24.134-1.974
	C301.61,389.58,354.803,329.008,354.803,256S301.61,122.42,231.865,110.912c7.853-1.299,15.918-1.974,24.134-1.974
	C337.224,108.938,403.062,174.776,403.062,256z"/>
<circle style="fill:#5C6D7D;" cx="253.042" cy="261.812" r="49.47"/>
<path style="fill:#53616D;" d="M302.524,261.818c0,27.326-22.151,49.477-49.477,49.477c-4.329,0-8.528-0.554-12.525-1.601
	c21.265-5.548,36.952-24.879,36.952-47.876s-15.687-42.328-36.952-47.876c3.997-1.047,8.196-1.601,12.525-1.601
	C280.373,212.341,302.524,234.492,302.524,261.818z"/>
<g>
	<circle style="fill:#EDEBED;" cx="280.892" cy="228.242" r="27.532"/>
	<path style="fill:#EDEBED;" d="M308.424,228.241c0,15.208-12.327,27.535-27.535,27.535c-2.409,0-4.746-0.308-6.971-0.891
		c11.834-3.087,20.565-13.846,20.565-26.644c0-12.798-8.73-23.557-20.565-26.644c2.225-0.583,4.561-0.891,6.971-0.891
		C296.097,200.706,308.424,213.034,308.424,228.241z"/>
</g>
<g>
	<path style="fill:#FFD071;" d="M256,42.816c-4.171,0-7.551-3.381-7.551-7.551V7.551c0-4.17,3.38-7.551,7.551-7.551
		c4.171,0,7.551,3.381,7.551,7.551v27.714C263.552,39.435,260.171,42.816,256,42.816z"/>
	<path style="fill:#FFD071;" d="M256,512c-4.171,0-7.551-3.381-7.551-7.551v-27.714c0-4.17,3.38-7.551,7.551-7.551
		c4.171,0,7.551,3.381,7.551,7.551v27.714C263.552,508.619,260.171,512,256,512z"/>
	<path style="fill:#FFD071;" d="M145.64,72.392c-2.61,0-5.147-1.354-6.547-3.777l-13.857-24.001
		c-2.085-3.611-0.848-8.23,2.764-10.315c3.611-2.086,8.229-0.848,10.315,2.764l13.857,24.001c2.085,3.611,0.848,8.23-2.764,10.315
		C148.22,72.065,146.921,72.392,145.64,72.392z"/>
	<path style="fill:#FFD071;" d="M380.231,478.716c-2.61,0-5.147-1.354-6.547-3.777l-13.857-24.001
		c-2.085-3.612-0.848-8.23,2.764-10.315c3.611-2.086,8.229-0.849,10.315,2.764l13.857,24.001c2.085,3.612,0.848,8.23-2.764,10.315
		C382.812,478.39,381.513,478.716,380.231,478.716z"/>
	<path style="fill:#FFD071;" d="M64.832,153.186c-1.281,0-2.579-0.326-3.769-1.013l-24.001-13.857
		c-3.611-2.085-4.849-6.703-2.764-10.315c2.084-3.611,6.701-4.85,10.315-2.764l24.001,13.857c3.611,2.085,4.849,6.703,2.764,10.315
		C69.98,151.831,67.441,153.186,64.832,153.186z"/>
	<path style="fill:#FFD071;" d="M471.157,387.777c-1.281,0-2.579-0.326-3.769-1.013l-24.001-13.857
		c-3.612-2.085-4.849-6.703-2.764-10.315c2.085-3.612,6.701-4.85,10.315-2.764l24.001,13.857c3.612,2.085,4.849,6.703,2.764,10.315
		C476.305,386.423,473.767,387.777,471.157,387.777z"/>
	<path style="fill:#FFD071;" d="M40.843,387.777c-2.61,0-5.148-1.354-6.547-3.777c-2.085-3.612-0.848-8.23,2.764-10.315
		l24.001-13.857c3.61-2.086,8.231-0.849,10.315,2.764c2.085,3.612,0.848,8.23-2.764,10.315l-24.001,13.857
		C43.423,387.451,42.125,387.777,40.843,387.777z"/>
	<path style="fill:#FFD071;" d="M447.169,153.186c-2.61,0-5.148-1.354-6.547-3.777c-2.085-3.612-0.848-8.23,2.764-10.315
		l24.001-13.857c3.61-2.085,8.231-0.848,10.315,2.764c2.085,3.612,0.848,8.23-2.764,10.315l-24.001,13.857
		C449.75,152.859,448.451,153.186,447.169,153.186z"/>
	<path style="fill:#FFD071;" d="M131.769,478.716c-1.281,0-2.579-0.326-3.769-1.013c-3.611-2.085-4.849-6.704-2.764-10.315
		l13.857-24.001c2.085-3.612,6.702-4.85,10.315-2.764c3.611,2.085,4.849,6.704,2.764,10.315l-13.857,24.001
		C136.917,477.362,134.378,478.716,131.769,478.716z"/>
	<path style="fill:#FFD071;" d="M366.361,72.392c-1.281,0-2.579-0.326-3.769-1.013c-3.612-2.085-4.849-6.704-2.764-10.315
		l13.857-24.001c2.085-3.612,6.702-4.85,10.315-2.764c3.612,2.085,4.849,6.704,2.764,10.315l-13.857,24.001
		C371.509,71.037,368.97,72.392,366.361,72.392z"/>
</g>
<g>
</g>
<g>
</g>
<g>
</g>
<g>
</g>
<g>
</g>
<g>
</g>
<g>
</g>
<g>
</g>
<g>
</g>
<g>
</g>
<g>
</g>
<g>
</g>
<g>
</g>
<g>
</g>
<g>
</g>
</svg>
